# Blender 4.4.0
# www.blender.org
mtllib Lightning spell vfx.mtl
o LightningBolt1_main
v 0.561935 18.396767 1.225173
v -0.112353 0.000000 0.747626
v 0.337061 18.147268 -0.764005
v 0.112353 0.000000 -0.747626
v 1.006876 17.474182 1.480080
v 1.259929 16.276169 1.623173
v 0.973638 14.305794 1.527217
v 0.845725 13.083312 1.040165
v 0.699054 11.567591 0.531369
v 0.279281 10.071853 0.629269
v -0.180348 8.827671 0.698791
v -0.424183 7.417893 -0.342412
v -0.414198 6.101716 -1.144700
v -0.203560 4.916786 -1.607896
v -0.034710 3.754469 -1.422874
v -0.051600 2.610913 -0.697376
v -0.163318 1.271107 0.258296
v -0.072948 1.132511 -1.662897
v -0.333978 2.406609 -2.602754
v -0.436253 3.661363 -3.438808
v -0.446979 4.886534 -3.797712
v -0.631423 6.120754 -3.348416
v -0.879890 7.366109 -2.859671
v -0.981638 8.679392 -2.323869
v -0.802195 9.887548 -2.179064
v -0.791788 11.418730 -2.175167
v -0.988863 12.845046 -1.785990
v -0.883838 14.075191 -1.510669
v -0.021513 16.046516 -1.209208
v 0.374778 17.220535 -0.832658
vn 0.9499 0.2262 -0.2157
vn 0.9856 0.1465 0.0849
vn 0.9525 0.0894 -0.2910
vn 0.9098 -0.1141 -0.3990
vn 0.8676 -0.0933 -0.4884
vn 0.8403 0.1184 -0.5290
vn 0.8774 0.0390 -0.4782
vn 0.9166 -0.1842 -0.3548
vn 0.9551 -0.1269 -0.2679
vn 0.9744 0.1070 -0.1977
vn 0.9755 0.1798 -0.1264
vn 0.9842 0.1235 -0.1267
vn 0.9866 -0.0271 -0.1608
vn 0.9957 -0.0131 -0.0922
vn 0.9941 0.1019 0.0367
vn 0.9982 0.0598 -0.0087
vn 0.9908 -0.0423 -0.1282
vn 0.9875 -0.0013 -0.1577
vn 0.9848 0.1169 -0.1288
vn 0.9754 0.1866 -0.1175
vn 0.9758 0.1348 -0.1723
vn 0.9663 -0.0501 -0.2525
vn 0.9189 -0.1917 -0.3447
vn 0.8849 0.0017 -0.4658
vn 0.8401 0.1367 -0.5249
vn 0.8610 -0.0276 -0.5078
vn 0.8992 -0.1418 -0.4140
vn 0.9518 0.0796 -0.2961
vt 0.000000 0.071429
vt 0.000000 0.000000
vt 1.000000 0.000000
vt 1.000000 0.071429
vt 0.000000 1.000000
vt 0.000000 0.928571
vt 1.000000 0.928571
vt 1.000000 1.000000
vt 0.000000 0.857143
vt 1.000000 0.857143
vt 0.000000 0.785714
vt 1.000000 0.785714
vt 0.000000 0.744532
vt 1.000000 0.744532
vt 0.000000 0.670648
vt 1.000000 0.670648
vt 0.000000 0.571429
vt 1.000000 0.571428
vt 0.000000 0.500000
vt 1.000000 0.500000
vt 0.000000 0.428571
vt 1.000000 0.428571
vt 0.000000 0.357143
vt 1.000000 0.357143
vt 0.000000 0.285714
vt 1.000000 0.285714
vt 0.000000 0.214286
vt 1.000000 0.214286
vt 0.000000 0.142857
vt 1.000000 0.142857
s 1
f 17/1/15 2/2/2 4/3/2 18/4/16
f 1/5/1 5/6/3 30/7/28 3/8/1
f 5/6/3 6/9/4 29/10/27 30/7/28
f 6/9/4 7/11/5 28/12/26 29/10/27
f 7/11/5 8/13/6 27/14/25 28/12/26
f 8/13/6 9/15/7 26/16/24 27/14/25
f 9/15/7 10/17/8 25/18/23 26/16/24
f 10/17/8 11/19/9 24/20/22 25/18/23
f 11/19/9 12/21/10 23/22/21 24/20/22
f 12/21/10 13/23/11 22/24/20 23/22/21
f 13/23/11 14/25/12 21/26/19 22/24/20
f 14/25/12 15/27/13 20/28/18 21/26/19
f 15/27/13 16/29/14 19/30/17 20/28/18
f 16/29/14 17/1/15 18/4/16 19/30/17
o LightningBolt2_impactPlane
v -1.706632 0.000000 1.706632
v 1.706632 0.000000 1.706632
v -1.706632 0.000000 -1.706632
v 1.706632 0.000000 -1.706632
vn -0.0000 1.0000 -0.0000
vt 0.000000 0.000000
vt 1.000000 0.000000
vt 1.000000 1.000000
vt 0.000000 1.000000
s 0
f 31/31/29 32/32/29 34/33/29 33/34/29
o LightningBolt2_impactCylinder
v 0.000000 0.000000 -0.743931
v -0.000000 1.487861 -2.747947
v 0.145134 0.000000 -0.729636
v 0.536098 1.487861 -2.695146
v 0.284690 0.000000 -0.687302
v 1.051594 1.487861 -2.538772
v 0.413306 0.000000 -0.618556
v 1.526677 1.487861 -2.284834
v 0.526038 0.000000 -0.526038
v 1.943092 1.487861 -1.943092
v 0.618556 0.000000 -0.413306
v 2.284834 1.487861 -1.526677
v 0.687302 0.000000 -0.284690
v 2.538772 1.487861 -1.051594
v 0.729636 0.000000 -0.145134
v 2.695146 1.487861 -0.536098
v 0.743931 0.000000 0.000000
v 2.747947 1.487861 0.000000
v 0.729636 0.000000 0.145134
v 2.695146 1.487861 0.536098
v 0.687302 0.000000 0.284690
v 2.538772 1.487861 1.051594
v 0.618556 0.000000 0.413306
v 2.284834 1.487861 1.526677
v 0.526038 0.000000 0.526038
v 1.943092 1.487861 1.943092
v 0.413306 0.000000 0.618556
v 1.526677 1.487861 2.284834
v 0.284690 0.000000 0.687302
v 1.051594 1.487861 2.538772
v 0.145134 0.000000 0.729636
v 0.536098 1.487861 2.695146
v 0.000000 0.000000 0.743931
v -0.000000 1.487861 2.747947
v -0.145134 0.000000 0.729636
v -0.536098 1.487861 2.695146
v -0.284690 0.000000 0.687302
v -1.051594 1.487861 2.538772
v -0.413306 0.000000 0.618556
v -1.526677 1.487861 2.284834
v -0.526038 0.000000 0.526038
v -1.943092 1.487861 1.943092
v -0.618556 0.000000 0.413306
v -2.284834 1.487861 1.526677
v -0.687302 0.000000 0.284690
v -2.538772 1.487861 1.051594
v -0.729636 0.000000 0.145134
v -2.695146 1.487861 0.536098
v -0.743931 0.000000 0.000000
v -2.747947 1.487861 0.000000
v -0.729636 0.000000 -0.145134
v -2.695146 1.487861 -0.536098
v -0.687302 0.000000 -0.284690
v -2.538772 1.487861 -1.051594
v -0.618556 0.000000 -0.413306
v -2.284834 1.487861 -1.526677
v -0.526038 0.000000 -0.526038
v -1.943092 1.487861 -1.943092
v -0.413306 0.000000 -0.618556
v -1.526677 1.487861 -2.284834
v -0.284690 0.000000 -0.687302
v -1.051594 1.487861 -2.538772
v -0.145134 0.000000 -0.729636
v -0.536098 1.487861 -2.695146
vn -0.0000 0.9435 0.3314
vn -0.0000 0.8029 0.5961
vn -0.0646 0.9435 0.3250
vn -0.1163 0.8029 0.5847
vn -0.1268 0.9435 0.3062
vn -0.2281 0.8029 0.5507
vn -0.1841 0.9435 0.2755
vn -0.3312 0.8029 0.4956
vn -0.2343 0.9435 0.2343
vn -0.4215 0.8029 0.4215
vn -0.2755 0.9435 0.1841
vn -0.4956 0.8029 0.3312
vn -0.3062 0.9435 0.1268
vn -0.5507 0.8029 0.2281
vn -0.3250 0.9435 0.0646
vn -0.5847 0.8029 0.1163
vn -0.3314 0.9435 -0.0000
vn -0.5961 0.8029 -0.0000
vn -0.3250 0.9435 -0.0646
vn -0.5847 0.8029 -0.1163
vn -0.3062 0.9435 -0.1268
vn -0.5507 0.8029 -0.2281
vn -0.2755 0.9435 -0.1841
vn -0.4956 0.8029 -0.3312
vn -0.2343 0.9435 -0.2343
vn -0.4215 0.8029 -0.4215
vn -0.1841 0.9435 -0.2755
vn -0.3312 0.8029 -0.4956
vn -0.1268 0.9435 -0.3062
vn -0.2281 0.8029 -0.5507
vn -0.0646 0.9435 -0.3250
vn -0.1163 0.8029 -0.5847
vn -0.0000 0.9435 -0.3314
vn -0.0000 0.8029 -0.5961
vn 0.0646 0.9435 -0.3250
vn 0.1163 0.8029 -0.5847
vn 0.1268 0.9435 -0.3062
vn 0.2281 0.8029 -0.5507
vn 0.1841 0.9435 -0.2755
vn 0.3312 0.8029 -0.4956
vn 0.2343 0.9435 -0.2343
vn 0.4215 0.8029 -0.4215
vn 0.2755 0.9435 -0.1841
vn 0.4956 0.8029 -0.3312
vn 0.3062 0.9435 -0.1268
vn 0.5507 0.8029 -0.2281
vn 0.3250 0.9435 -0.0646
vn 0.5847 0.8029 -0.1163
vn 0.3314 0.9435 -0.0000
vn 0.5961 0.8029 -0.0000
vn 0.3250 0.9435 0.0646
vn 0.5847 0.8029 0.1163
vn 0.3062 0.9435 0.1268
vn 0.5507 0.8029 0.2281
vn 0.2755 0.9435 0.1841
vn 0.4956 0.8029 0.3312
vn 0.2343 0.9435 0.2343
vn 0.4215 0.8029 0.4215
vn 0.1841 0.9435 0.2755
vn 0.3312 0.8029 0.4956
vn 0.1268 0.9435 0.3062
vn 0.2281 0.8029 0.5507
vn 0.0646 0.9435 0.3250
vn 0.1163 0.8029 0.5847
vt 1.000000 0.500000
vt 0.968750 0.500000
vt 0.968750 1.000000
vt 1.000000 1.000000
vt 0.937500 0.500000
vt 0.937500 1.000000
vt 0.906250 0.500000
vt 0.906250 1.000000
vt 0.875000 0.500000
vt 0.875000 1.000000
vt 0.843750 0.500000
vt 0.843750 1.000000
vt 0.812500 0.500000
vt 0.812500 1.000000
vt 0.781250 0.500000
vt 0.781250 1.000000
vt 0.750000 0.500000
vt 0.750000 1.000000
vt 0.718750 0.500000
vt 0.718750 1.000000
vt 0.687500 0.500000
vt 0.687500 1.000000
vt 0.656250 0.500000
vt 0.656250 1.000000
vt 0.625000 0.500000
vt 0.625000 1.000000
vt 0.593750 0.500000
vt 0.593750 1.000000
vt 0.562500 0.500000
vt 0.562500 1.000000
vt 0.531250 0.500000
vt 0.531250 1.000000
vt 0.500000 0.500000
vt 0.500000 1.000000
vt 0.468750 0.500000
vt 0.468750 1.000000
vt 0.437500 0.500000
vt 0.437500 1.000000
vt 0.406250 0.500000
vt 0.406250 1.000000
vt 0.375000 0.500000
vt 0.375000 1.000000
vt 0.343750 0.500000
vt 0.343750 1.000000
vt 0.312500 0.500000
vt 0.312500 1.000000
vt 0.281250 0.500000
vt 0.281250 1.000000
vt 0.250000 0.500000
vt 0.250000 1.000000
vt 0.218750 0.500000
vt 0.218750 1.000000
vt 0.187500 0.500000
vt 0.187500 1.000000
vt 0.156250 0.500000
vt 0.156250 1.000000
vt 0.125000 0.500000
vt 0.125000 1.000000
vt 0.093750 0.500000
vt 0.093750 1.000000
vt 0.062500 0.500000
vt 0.062500 1.000000
vt 0.031250 0.500000
vt 0.031250 1.000000
vt 0.000000 0.500000
vt 0.000000 1.000000
vt 0.750000 0.490000
vt 0.703178 0.485388
vt 0.658156 0.471731
vt 0.616663 0.449553
vt 0.580294 0.419706
vt 0.550447 0.383337
vt 0.528269 0.341844
vt 0.514612 0.296822
vt 0.510000 0.250000
vt 0.514612 0.203178
vt 0.528269 0.158156
vt 0.550447 0.116663
vt 0.580294 0.080294
vt 0.616663 0.050447
vt 0.658156 0.028269
vt 0.703178 0.014612
vt 0.750000 0.010000
vt 0.796822 0.014612
vt 0.841844 0.028269
vt 0.883337 0.050447
vt 0.919706 0.080294
vt 0.949553 0.116663
vt 0.971731 0.158156
vt 0.985388 0.203178
vt 0.990000 0.250000
vt 0.985388 0.296822
vt 0.971731 0.341844
vt 0.949553 0.383337
vt 0.919706 0.419706
vt 0.883337 0.449553
vt 0.841844 0.471731
vt 0.796822 0.485388
s 1
f 35/35/30 37/36/32 38/37/33 36/38/31
f 37/36/32 39/39/34 40/40/35 38/37/33
f 39/39/34 41/41/36 42/42/37 40/40/35
f 41/41/36 43/43/38 44/44/39 42/42/37
f 43/43/38 45/45/40 46/46/41 44/44/39
f 45/45/40 47/47/42 48/48/43 46/46/41
f 47/47/42 49/49/44 50/50/45 48/48/43
f 49/49/44 51/51/46 52/52/47 50/50/45
f 51/51/46 53/53/48 54/54/49 52/52/47
f 53/53/48 55/55/50 56/56/51 54/54/49
f 55/55/50 57/57/52 58/58/53 56/56/51
f 57/57/52 59/59/54 60/60/55 58/58/53
f 59/59/54 61/61/56 62/62/57 60/60/55
f 61/61/56 63/63/58 64/64/59 62/62/57
f 63/63/58 65/65/60 66/66/61 64/64/59
f 65/65/60 67/67/62 68/68/63 66/66/61
f 67/67/62 69/69/64 70/70/65 68/68/63
f 69/69/64 71/71/66 72/72/67 70/70/65
f 71/71/66 73/73/68 74/74/69 72/72/67
f 73/73/68 75/75/70 76/76/71 74/74/69
f 75/75/70 77/77/72 78/78/73 76/76/71
f 77/77/72 79/79/74 80/80/75 78/78/73
f 79/79/74 81/81/76 82/82/77 80/80/75
f 81/81/76 83/83/78 84/84/79 82/82/77
f 83/83/78 85/85/80 86/86/81 84/84/79
f 85/85/80 87/87/82 88/88/83 86/86/81
f 87/87/82 89/89/84 90/90/85 88/88/83
f 89/89/84 91/91/86 92/92/87 90/90/85
f 91/91/86 93/93/88 94/94/89 92/92/87
f 93/93/88 95/95/90 96/96/91 94/94/89
f 95/95/90 97/97/92 98/98/93 96/96/91
f 97/97/92 35/99/30 36/100/31 98/98/93
f 35/101/30 97/102/92 95/103/90 93/104/88 91/105/86 89/106/84 87/107/82 85/108/80 83/109/78 81/110/76 79/111/74 77/112/72 75/113/70 73/114/68 71/115/66 69/116/64 67/117/62 65/118/60 63/119/58 61/120/56 59/121/54 57/122/52 55/123/50 53/124/48 51/125/46 49/126/44 47/127/42 45/128/40 43/129/38 41/130/36 39/131/34 37/132/32
